# xmcd CD database file
#
# Track frame offsets:
#	150
#	10950
#	37425
#	61500
#	90750
#	104550
#	127125
#	158100
#	184200
#	193875
#	209700
#	239925
#	265875
#
# Disc length: 3747 seconds
#
# Revision: 0
# Processed by: cddbd v1.5.2PL0 Copyright (c) Steve Scherf et al.
# Submitted via: CDex 1.51
#
DISCID=c60ea10d
DTITLE=Jeffrey Burr - Bright Blue
DYEAR=2002
DGENRE=Jazz
TTITLE0=Locomotive (part I)
TTITLE1=Wayne's Refrain
TTITLE2=Legal Eyes
TTITLE3=Myoko
TTITLE4=Poem
TTITLE5=Say Say O Playmate
TTITLE6=Somewhere Out There
TTITLE7=Bright Blue
TTITLE8=Zombiecavemanrobot
TTITLE9=Indestructo!
TTITLE10=The Logician
TTITLE11=Han Solo and the Princess
TTITLE12=Locomotive (part II)
EXTD=YEAR: 2002
EXTT0=
EXTT1=
EXTT2=
EXTT3=
EXTT4=
EXTT5=
EXTT6=
EXTT7=
EXTT8=
EXTT9=
EXTT10=
EXTT11=
EXTT12=
PLAYORDER=
